<svg version="1.1" id="Layer_1" xmlns="http://www.w3.org/2000/svg" xmlns:xlink="http://www.w3.org/1999/xlink" x="0px" y="0px"
	 width="100%" viewBox="0 0 200 200" enable-background="new 0 0 200 200" xml:space="preserve">
<path fill="#195AF6" opacity="1.000000" stroke="none" 
	d="
M115.000000,201.000000 
	C76.690323,201.000000 38.880650,201.000000 1.035486,201.000000 
	C1.035486,134.398697 1.035486,67.797363 1.035486,1.098018 
	C67.559509,1.098018 134.119202,1.098018 200.839447,1.098018 
	C200.839447,67.666359 200.839447,134.333145 200.839447,201.000000 
	C172.464310,201.000000 143.982162,201.000000 115.000000,201.000000 
M72.091133,112.387375 
	C72.147507,111.997696 72.203880,111.608009 72.749245,110.881683 
	C73.333336,110.096916 73.917435,109.312157 74.501526,108.527397 
	C74.736198,109.122528 74.970879,109.717667 75.205551,110.312805 
	C76.989967,110.051720 78.774384,109.790634 80.732735,109.938332 
	C80.732735,109.938332 80.573708,109.530205 81.318649,109.481171 
	C82.557411,109.334129 83.796181,109.187080 85.427719,109.515816 
	C86.032097,109.481621 86.636475,109.447418 87.213867,110.112366 
	C87.248260,110.343033 87.282654,110.573708 87.861160,111.245277 
	C91.042793,110.472969 94.216423,109.665176 97.409714,108.944550 
	C98.829544,108.624130 100.289032,108.479485 102.087387,108.867744 
	C106.202927,113.083496 111.390350,113.183586 116.054024,109.332985 
	C121.973236,111.353203 127.813286,114.447433 134.784134,110.787849 
	C135.195114,110.889816 135.606094,110.991783 136.609970,111.419937 
	C138.058685,110.666939 139.507401,109.913933 141.602371,108.857674 
	C142.422256,108.467934 143.242142,108.078186 144.034363,107.883957 
	C144.034363,107.883957 144.078522,108.076431 144.389679,108.374458 
	C144.606110,108.566940 144.848282,108.718216 145.591599,109.003761 
	C145.830429,109.232262 146.069244,109.460762 146.379745,110.201744 
	C146.875885,110.662392 147.372009,111.123032 147.868149,111.583672 
	C148.164169,110.960037 148.460190,110.336403 148.883194,109.957344 
	C148.883194,109.957344 148.732498,109.726166 149.478851,109.717575 
	C150.218430,107.988548 151.190918,106.315598 151.624908,104.513000 
	C151.981262,103.032944 151.697586,101.398788 151.697586,99.832939 
	C152.046082,99.825287 152.394562,99.817635 152.743057,99.809982 
	C154.103546,102.609612 155.464050,105.409248 157.139359,108.539619 
	C157.351913,108.757858 157.571289,108.969025 158.083710,109.738922 
	C159.562073,112.720909 161.575363,112.858490 164.602585,111.108414 
	C165.409500,111.176048 166.331940,111.532524 167.004303,111.263672 
	C170.892197,109.709015 172.516159,105.361084 171.877762,99.301796 
	C171.399765,94.764931 168.982529,92.228882 164.512833,92.146210 
	C154.352997,91.958290 144.188782,91.970848 134.026398,91.976036 
	C130.499023,91.977829 126.547371,93.200264 125.512276,87.884666 
	C125.395721,87.286171 124.002625,86.717239 123.116806,86.525192 
	C119.122627,85.659248 115.097946,84.934021 110.261757,84.074966 
	C101.917244,83.637169 101.781372,83.757690 97.993736,91.716721 
	C97.551170,92.646706 96.516762,93.295029 95.427612,93.442833 
	C92.160431,91.701759 88.935928,90.621521 86.001877,93.994446 
	C86.001877,93.994446 86.054169,94.017464 85.346283,93.900780 
	C84.332390,92.538437 83.180992,91.254173 82.348793,89.788658 
	C81.701172,88.648178 81.451149,87.281921 80.833557,85.696266 
	C80.833557,85.696266 80.778923,85.327919 80.823402,84.776215 
	C80.523842,84.267021 80.224281,83.757828 79.924721,83.248627 
	C79.276329,83.848198 78.627937,84.447762 77.775055,85.390198 
	C77.634613,85.621513 77.450256,85.809814 76.660172,86.175415 
	C74.109138,90.450897 71.558098,94.726372 69.643082,97.935898 
	C64.934036,94.335075 60.419807,90.849068 55.848537,87.439537 
	C55.381126,87.090927 54.446651,86.918900 53.941280,87.143272 
	C50.476463,88.681557 48.039322,86.512001 45.278980,85.079315 
	C40.968395,82.842018 36.366314,83.811241 33.433323,87.558388 
	C30.494186,90.217766 30.284939,93.251297 32.233467,97.273605 
	C32.273151,97.503159 32.312840,97.732719 31.731897,98.357635 
	C28.066031,100.895966 28.761206,103.937691 30.857267,107.001907 
	C33.757248,111.241364 39.491043,112.978455 45.147255,111.538315 
	C46.552811,111.180443 48.037434,110.700134 49.436031,110.826408 
	C54.266766,111.262543 59.075558,111.941711 64.131676,112.557449 
	C65.260941,119.740097 65.951302,120.347733 70.748718,116.928482 
	C71.174522,115.610840 71.600327,114.293198 72.091133,112.387375 
z"/>
<path fill="#2A5FDB" opacity="1.000000" stroke="none" 
	d="
M70.189003,117.193680 
	C65.951302,120.347733 65.260941,119.740097 64.131676,112.557449 
	C59.075558,111.941711 54.266766,111.262543 49.436031,110.826408 
	C48.037434,110.700134 46.552811,111.180443 45.147255,111.538315 
	C39.491043,112.978455 33.757248,111.241364 30.857267,107.001907 
	C28.761206,103.937691 28.066031,100.895966 32.381214,98.154968 
	C33.724037,97.941048 34.417542,97.929787 35.073608,97.934288 
	C35.036167,97.950043 35.005180,97.874947 35.292740,98.082962 
	C36.491108,98.493279 37.401917,98.695587 38.489838,98.870918 
	C38.666950,98.843941 38.988529,99.001961 39.324493,99.181099 
	C40.658772,99.517578 41.657089,99.674919 42.865738,99.736092 
	C43.401752,99.665565 43.670979,99.802353 44.075119,100.221893 
	C44.548546,100.583191 44.830597,100.772865 45.073788,100.961494 
	C45.034927,100.960457 45.037514,100.882751 45.174568,101.100983 
	C45.529240,101.588188 45.746864,101.857162 46.084797,102.408447 
	C46.118534,103.085014 46.031963,103.479263 45.775085,104.064034 
	C45.414684,104.533905 45.224598,104.813263 45.025719,105.060989 
	C45.016926,105.029366 45.082474,105.025772 44.884464,105.173889 
	C44.427029,105.530411 44.200619,105.770027 44.005989,106.016205 
	C44.004753,105.991570 44.042751,106.023041 43.771057,106.068573 
	C42.997372,106.335564 42.495380,106.557022 41.615826,106.851593 
	C39.240639,105.735962 37.227753,104.571838 35.252495,103.347031 
	C34.398415,102.817429 33.622021,102.162537 32.810333,101.564560 
	C32.641972,102.719902 31.978987,104.103874 32.389355,104.991722 
	C34.350666,109.235062 38.279037,110.782906 42.340115,109.617599 
	C45.783188,108.629623 48.759346,106.014473 51.969032,104.483627 
	C54.659622,110.675407 56.617271,111.423714 59.788589,107.826637 
	C54.438347,106.073936 53.824413,104.348640 55.748123,96.257050 
	C57.512791,96.159370 59.315590,96.059570 61.252457,95.999657 
	C61.386528,96.039536 61.663841,96.076416 61.790333,96.445427 
	C63.568100,101.578964 65.219376,106.343491 67.396194,112.624397 
	C66.556076,115.898590 66.556076,115.898590 69.839813,116.847488 
	C69.956421,116.962677 70.189003,117.193680 70.189003,117.193680 
z"/>
<path fill="#3666D0" opacity="1.000000" stroke="none" 
	d="
M111.084259,84.158073 
	C115.097946,84.934021 119.122627,85.659248 123.116806,86.525192 
	C124.002625,86.717239 125.395721,87.286171 125.512276,87.884666 
	C126.547371,93.200264 130.499023,91.977829 134.026398,91.976036 
	C144.188782,91.970848 154.352997,91.958290 164.512833,92.146210 
	C168.982529,92.228882 171.399765,94.764931 171.877762,99.301796 
	C172.516159,105.361084 170.892197,109.709015 167.004303,111.263672 
	C166.331940,111.532524 165.409500,111.176048 164.299271,110.794174 
	C163.995956,110.479935 163.999817,110.107094 164.327545,109.962708 
	C166.409424,108.696648 168.163574,107.574966 169.685867,106.601540 
	C169.685867,104.771225 169.466736,103.201927 169.727783,101.717049 
	C170.452408,97.595276 168.527359,94.425911 164.352448,94.143318 
	C161.656387,93.960815 158.896423,94.722549 155.861374,95.136818 
	C155.021133,95.523888 154.484619,95.835274 153.665375,96.221817 
	C152.993469,96.270943 152.604294,96.244926 152.066528,95.916466 
	C150.996231,95.060738 150.074539,94.507446 148.755005,93.927536 
	C146.582611,94.907417 144.808029,95.913925 142.896469,96.571823 
	C138.145477,92.475342 135.304794,92.618790 129.013672,96.945984 
	C129.046188,96.972992 129.043884,97.057518 129.045410,96.648514 
	C127.172768,95.075996 125.298615,93.912476 123.680145,92.907692 
	C123.434402,91.751183 123.122063,90.281311 122.689705,88.246597 
	C120.988785,91.043167 120.000565,92.667961 118.653809,94.191742 
	C116.727531,90.597107 115.364594,86.921379 111.024818,85.610168 
	C111.051636,84.931747 111.067947,84.544907 111.084259,84.158073 
z"/>
<path fill="#D0E7FD" opacity="1.000000" stroke="none" 
	d="
M45.945396,103.873512 
	C46.031963,103.479263 46.118534,103.085014 46.060101,102.113129 
	C45.622566,101.317917 45.330040,101.100334 45.037514,100.882751 
	C45.037514,100.882751 45.034927,100.960457 44.994305,100.683105 
	C44.597034,100.287262 44.240391,100.168770 43.883743,100.050270 
	C43.670979,99.802353 43.401752,99.665565 42.577370,99.469917 
	C41.048622,99.200600 40.018578,99.101280 38.988529,99.001961 
	C38.988529,99.001961 38.666950,98.843941 38.208290,98.658554 
	C36.834816,98.273766 35.919998,98.074356 35.005180,97.874939 
	C35.005180,97.874947 35.036167,97.950043 34.863678,97.670593 
	C33.859936,97.119308 33.028683,96.847473 32.197433,96.575630 
	C30.284939,93.251297 30.494186,90.217766 34.127136,87.350037 
	C42.718033,84.580902 45.014267,85.447250 50.013794,93.187073 
	C49.971741,93.692505 49.956444,93.894798 49.586159,94.060120 
	C48.285961,94.156487 47.340752,94.289818 46.374420,94.426125 
	C44.367096,89.402496 41.664280,87.616150 38.098820,89.324890 
	C37.099346,89.803886 36.129833,91.129463 35.922203,92.215065 
	C35.770908,93.006081 36.687092,94.571304 37.481346,94.879677 
	C42.266285,96.737442 47.153397,98.332054 52.022713,100.425087 
	C52.006786,101.930077 51.974453,103.024712 51.942120,104.119354 
	C48.759346,106.014473 45.783188,108.629623 42.340115,109.617599 
	C38.279037,110.782906 34.350666,109.235062 32.389355,104.991722 
	C31.978987,104.103874 32.641972,102.719902 32.810333,101.564560 
	C33.622021,102.162537 34.398415,102.817429 35.252495,103.347031 
	C37.227753,104.571838 39.240639,105.735962 41.904182,106.874344 
	C43.060986,106.557007 43.551868,106.290024 44.042751,106.023041 
	C44.042751,106.023041 44.004753,105.991570 44.283714,105.968201 
	C44.735943,105.638474 44.909210,105.332123 45.082474,105.025772 
	C45.082474,105.025772 45.016926,105.029366 45.315712,104.997391 
	C45.724800,104.601448 45.835102,104.237480 45.945396,103.873512 
z"/>
<path fill="#3164D3" opacity="1.000000" stroke="none" 
	d="
M50.040543,92.883949 
	C45.014267,85.447250 42.718033,84.580902 34.405914,87.144318 
	C36.366314,83.811241 40.968395,82.842018 45.278980,85.079315 
	C48.039322,86.512001 50.476463,88.681557 53.941280,87.143272 
	C54.446651,86.918900 55.381126,87.090927 55.848537,87.439537 
	C60.419807,90.849068 64.934036,94.335075 69.643082,97.935898 
	C71.558098,94.726372 74.109138,90.450897 76.992889,86.505020 
	C76.864365,89.279640 76.403114,91.724655 75.564545,94.061279 
	C74.142593,95.140678 72.740509,96.170929 72.132233,97.551041 
	C71.064400,99.973839 70.482735,102.610901 69.697433,105.158226 
	C69.126892,105.211044 68.556343,105.263863 67.985794,105.316681 
	C67.057251,102.836975 66.123146,100.359329 65.201714,97.876991 
	C64.226021,95.248482 64.231285,95.246529 61.663841,96.076416 
	C61.663841,96.076416 61.386528,96.039536 61.286289,95.578613 
	C57.470882,94.373108 53.755711,93.628525 50.040543,92.883949 
z"/>
<path fill="#DAEFFF" opacity="1.000000" stroke="none" 
	d="
M128.981140,96.918968 
	C135.304794,92.618790 138.145477,92.475342 143.010559,96.910110 
	C143.528427,100.960815 143.795212,104.324623 144.062012,107.688446 
	C143.242142,108.078186 142.422256,108.467934 140.942963,109.011803 
	C138.861389,109.808540 137.439240,110.451149 136.017075,111.093750 
	C135.606094,110.991783 135.195114,110.889816 134.414642,110.389633 
	C128.324722,107.196030 128.684357,102.045326 128.981140,96.918968 
M139.543533,106.049721 
	C140.045380,104.875381 141.135040,103.581184 140.925186,102.551956 
	C140.504395,100.488182 139.713287,98.274223 138.373810,96.730888 
	C137.812195,96.083801 134.529663,96.492340 134.117752,97.277733 
	C133.079681,99.257011 132.246307,101.865372 132.657715,103.961151 
	C133.278503,107.123741 135.998337,107.636642 139.543533,106.049721 
z"/>
<path fill="#D5EAFD" opacity="1.000000" stroke="none" 
	d="
M87.240852,109.413223 
	C86.636475,109.447418 86.032097,109.481621 85.193054,108.948105 
	C83.972412,107.585510 82.986450,106.790627 82.081085,105.630875 
	C82.120613,102.896309 82.079521,100.526619 82.322533,97.989075 
	C83.755814,96.553291 84.904991,95.285378 86.054169,94.017464 
	C86.054169,94.017464 86.001877,93.994446 86.435440,93.993073 
	C89.579025,94.346413 92.289047,94.701134 95.101868,95.266693 
	C95.387436,95.744331 95.629395,95.936729 96.004478,96.349190 
	C96.340950,96.943817 96.603470,97.243980 96.834366,97.656311 
	C96.802750,97.768486 96.962852,97.937866 96.958183,98.349884 
	C96.954521,99.850662 96.955521,100.939407 96.579185,102.052994 
	C95.104713,101.719154 94.007576,101.360474 93.197906,100.815521 
	C94.105309,97.584908 92.090836,95.612564 89.846107,96.329941 
	C88.221191,96.849228 87.438293,100.003281 86.123917,102.349167 
	C86.237686,107.086960 88.444458,108.048943 92.209366,106.171829 
	C92.206642,106.079720 92.022408,106.084358 92.389359,105.987686 
	C92.874603,105.437378 92.992897,104.983742 93.305496,104.704529 
	C93.617035,104.750275 93.734268,104.621605 94.121048,104.317642 
	C95.239464,104.116196 96.088333,104.090057 96.956757,104.419342 
	C96.087692,109.135658 92.066216,109.293846 88.944267,110.514603 
	C88.343422,110.007057 87.792137,109.710144 87.240852,109.413223 
z"/>
<path fill="#C1D8F2" opacity="1.000000" stroke="none" 
	d="
M82.038437,98.156929 
	C82.079521,100.526619 82.120613,102.896309 81.947647,105.930237 
	C81.346977,107.573051 80.960342,108.551628 80.573708,109.530205 
	C80.573708,109.530205 80.732735,109.938332 80.306015,109.727661 
	C75.537964,108.844887 78.106606,105.380325 77.342407,103.260880 
	C76.702858,101.487114 79.038422,98.384911 75.065491,97.759949 
	C75.365883,96.338707 75.653870,95.254189 75.941864,94.169678 
	C76.403114,91.724655 76.864365,89.279640 77.273796,86.394867 
	C77.450256,85.809814 77.634613,85.621513 78.229782,85.242287 
	C79.382652,85.172218 80.080788,85.250069 80.778923,85.327919 
	C80.778923,85.327919 80.833557,85.696266 80.882507,86.310806 
	C81.300446,90.669205 81.669441,94.413063 82.038437,98.156929 
z"/>
<path fill="#2A5FDB" opacity="1.000000" stroke="none" 
	d="
M129.013672,96.945984 
	C128.684357,102.045326 128.324722,107.196030 134.102600,110.329521 
	C127.813286,114.447433 121.973236,111.353203 115.593384,109.148727 
	C115.132744,108.964470 114.848312,108.806755 115.000305,108.573105 
	C115.746780,107.894775 116.341255,107.450096 117.116135,106.982666 
	C117.488350,106.542503 117.680161,106.125084 117.876190,105.541191 
	C117.880424,105.374718 118.054626,105.090858 118.332870,105.173676 
	C119.384766,105.831589 120.158401,106.406677 121.132736,107.266937 
	C125.431892,110.678986 126.088837,110.690773 128.764053,107.685425 
	C123.357071,106.201546 122.999924,105.304138 124.641983,97.057518 
	C126.085007,97.057518 127.564445,97.057518 129.043884,97.057518 
	C129.043884,97.057518 129.046188,96.972992 129.013672,96.945984 
M130.532257,110.501564 
	C130.532257,110.501564 130.488724,110.517464 130.532257,110.501564 
z"/>
<path fill="#D0E7FD" opacity="1.000000" stroke="none" 
	d="
M144.048187,107.786194 
	C143.795212,104.324623 143.528427,100.960815 143.147552,97.258720 
	C144.808029,95.913925 146.582611,94.907417 148.833344,94.320404 
	C149.117172,99.735321 148.924835,104.730743 148.732498,109.726166 
	C148.732498,109.726166 148.883194,109.957344 148.516235,109.774628 
	C147.535538,109.624367 146.921799,109.656815 146.308060,109.689262 
	C146.069244,109.460762 145.830429,109.232262 145.265656,108.692963 
	C144.721344,108.087013 144.434280,107.985100 144.078522,108.076431 
	C144.078522,108.076431 144.034363,107.883957 144.048187,107.786194 
z"/>
<path fill="#2A5FDB" opacity="1.000000" stroke="none" 
	d="
M95.930519,96.054726 
	C95.629395,95.936729 95.387436,95.744331 95.221588,95.096298 
	C95.395538,94.488640 95.568283,94.274933 95.756729,94.073929 
	C96.516762,93.295029 97.551170,92.646706 97.993736,91.716721 
	C101.781372,83.757690 101.917244,83.637169 110.673004,84.116516 
	C111.067947,84.544907 111.051636,84.931747 110.598763,85.654602 
	C106.491798,85.860580 102.275948,85.636299 101.214691,89.960037 
	C100.649200,92.263924 102.430153,95.143730 103.006935,98.079002 
	C101.929314,99.008980 100.996780,99.623543 99.767715,100.109329 
	C98.635071,99.299660 97.798965,98.618759 96.962852,97.937866 
	C96.962852,97.937866 96.802750,97.768486 96.833374,97.445709 
	C96.552841,96.766869 96.241676,96.410797 95.930519,96.054726 
z"/>
<path fill="#3866CA" opacity="1.000000" stroke="none" 
	d="
M149.105682,109.721870 
	C148.924835,104.730743 149.117172,99.735321 149.231171,94.347031 
	C150.074539,94.507446 150.996231,95.060738 152.169693,96.045631 
	C152.930328,96.367043 153.439224,96.256851 153.948105,96.146660 
	C154.484619,95.835274 155.021133,95.523888 155.824966,95.587273 
	C156.438660,99.936104 156.785034,103.910156 157.054474,107.965195 
	C156.977554,108.046173 156.824539,108.208885 156.824539,108.208885 
	C155.464050,105.409248 154.103546,102.609612 152.743057,99.809982 
	C152.394562,99.817635 152.046082,99.825287 151.697586,99.832939 
	C151.697586,101.398788 151.981262,103.032944 151.624908,104.513000 
	C151.190918,106.315598 150.218430,107.988548 149.105682,109.721870 
z"/>
<path fill="#3666D0" opacity="1.000000" stroke="none" 
	d="
M96.958183,98.349884 
	C97.798965,98.618759 98.635071,99.299660 99.794601,100.392059 
	C100.140167,100.993271 100.162323,101.182983 100.133224,101.719833 
	C100.804726,103.958191 101.527473,105.849419 102.120590,107.869537 
	C101.990959,107.998436 101.730522,108.255058 101.730522,108.255058 
	C100.289032,108.479485 98.829544,108.624130 97.409714,108.944550 
	C94.216423,109.665176 91.042793,110.472969 87.868713,111.016273 
	C88.248779,110.766594 88.621307,110.745911 88.993828,110.725227 
	C92.066216,109.293846 96.087692,109.135658 96.967346,104.080215 
	C96.957756,102.933167 96.957146,102.480659 96.956528,102.028160 
	C96.955521,100.939407 96.954521,99.850662 96.958183,98.349884 
z"/>
<path fill="#3866CA" opacity="1.000000" stroke="none" 
	d="
M75.053085,98.096672 
	C79.038422,98.384911 76.702858,101.487114 77.342407,103.260880 
	C78.106606,105.380325 75.537964,108.844887 80.219040,109.523277 
	C78.774384,109.790634 76.989967,110.051720 75.205551,110.312805 
	C74.970879,109.717667 74.736198,109.122528 74.501526,108.527397 
	C73.917435,109.312157 73.333336,110.096916 72.365143,110.934937 
	C71.981041,110.988197 71.706421,110.758675 71.747543,110.372360 
	C72.876808,106.022919 73.964943,102.059792 75.053085,98.096672 
z"/>
<path fill="#3666D0" opacity="1.000000" stroke="none" 
	d="
M115.274200,109.044693 
	C111.390350,113.183586 106.202927,113.083496 101.908951,108.561401 
	C101.730522,108.255058 101.990959,107.998436 102.464478,108.005112 
	C106.908096,108.276779 110.878204,108.541763 114.848312,108.806755 
	C114.848312,108.806755 115.132744,108.964470 115.274200,109.044693 
z"/>
<path fill="#3164D3" opacity="1.000000" stroke="none" 
	d="
M82.322540,97.989075 
	C81.669441,94.413063 81.300446,90.669205 80.977936,86.470673 
	C81.451149,87.281921 81.701172,88.648178 82.348793,89.788658 
	C83.180992,91.254173 84.332390,92.538437 85.700226,93.959122 
	C84.904991,95.285378 83.755814,96.553291 82.322540,97.989075 
z"/>
<path fill="#3666D0" opacity="1.000000" stroke="none" 
	d="
M95.592178,93.758377 
	C95.568283,94.274933 95.395538,94.488640 95.118797,94.885452 
	C92.289047,94.701134 89.579025,94.346413 86.435867,94.021637 
	C88.935928,90.621521 92.160431,91.701759 95.592178,93.758377 
z"/>
<path fill="#3866CA" opacity="1.000000" stroke="none" 
	d="
M163.999817,110.107101 
	C163.999817,110.107094 163.995956,110.479935 163.994095,110.665009 
	C161.575363,112.858490 159.562073,112.720909 158.017670,109.384277 
	C157.951645,109.029625 158.105133,108.885422 158.482758,108.946487 
	C160.573532,109.374069 162.286682,109.740585 163.999817,110.107101 
z"/>
<path fill="#2A5FDB" opacity="1.000000" stroke="none" 
	d="
M72.026123,112.975555 
	C71.600327,114.293198 71.174522,115.610840 70.468857,117.061081 
	C70.189003,117.193680 69.956421,116.962677 69.905136,116.521622 
	C70.267288,115.060501 70.680733,114.040421 71.327248,113.010880 
	C71.560318,113.001411 72.026123,112.975555 72.026123,112.975555 
z"/>
<path fill="#3866CA" opacity="1.000000" stroke="none" 
	d="
M80.946182,109.505692 
	C80.960342,108.551628 81.346977,107.573051 81.867043,106.295105 
	C82.986450,106.790627 83.972412,107.585510 84.996658,108.710220 
	C83.796181,109.187080 82.557411,109.334129 80.946182,109.505692 
z"/>
<path fill="#2A5FDB" opacity="1.000000" stroke="none" 
	d="
M136.313522,111.256851 
	C137.439240,110.451149 138.861389,109.808540 140.619827,109.163429 
	C139.507401,109.913933 138.058685,110.666939 136.313522,111.256851 
z"/>
<path fill="#3164D3" opacity="1.000000" stroke="none" 
	d="
M80.801163,85.052063 
	C80.080788,85.250069 79.382652,85.172218 78.332031,85.070854 
	C78.627937,84.447762 79.276329,83.848198 79.924721,83.248627 
	C80.224281,83.757828 80.523842,84.267021 80.801163,85.052063 
z"/>
<path fill="#3866CA" opacity="1.000000" stroke="none" 
	d="
M146.343903,109.945503 
	C146.921799,109.656815 147.535538,109.624367 148.452744,109.652344 
	C148.460190,110.336403 148.164169,110.960037 147.868149,111.583672 
	C147.372009,111.123032 146.875885,110.662392 146.343903,109.945503 
z"/>
<path fill="#C1D8F2" opacity="1.000000" stroke="none" 
	d="
M88.944267,110.514603 
	C88.621307,110.745911 88.248779,110.766594 87.596657,110.795830 
	C87.282654,110.573708 87.248260,110.343033 87.227356,109.762794 
	C87.792137,109.710144 88.343422,110.007057 88.944267,110.514603 
z"/>
<path fill="#3661C9" opacity="1.000000" stroke="none" 
	d="
M32.215450,96.924622 
	C33.028683,96.847473 33.859936,97.119308 34.901115,97.654846 
	C34.417542,97.929787 33.724037,97.941048 32.691528,97.957298 
	C32.312840,97.732719 32.273151,97.503159 32.215450,96.924622 
z"/>
<path fill="#3866CA" opacity="1.000000" stroke="none" 
	d="
M72.058624,112.681465 
	C72.026123,112.975555 71.560318,113.001411 71.298264,112.706367 
	C71.259613,111.860443 71.483017,111.309555 71.706421,110.758675 
	C71.706421,110.758675 71.981041,110.988197 72.120651,111.103264 
	C72.203880,111.608009 72.147507,111.997696 72.058624,112.681465 
z"/>
<path fill="#3866CA" opacity="1.000000" stroke="none" 
	d="
M144.234100,108.225449 
	C144.434280,107.985100 144.721344,108.087013 145.027954,108.605240 
	C144.848282,108.718216 144.606110,108.566940 144.234100,108.225449 
z"/>
<path fill="#3866CA" opacity="1.000000" stroke="none" 
	d="
M157.874573,109.101364 
	C157.571289,108.969025 157.351913,108.757858 156.981949,108.374252 
	C156.824539,108.208885 156.977554,108.046173 157.284424,108.055054 
	C157.870209,108.270439 158.041489,108.544273 158.105133,108.885422 
	C158.105133,108.885422 157.951645,109.029625 157.874573,109.101364 
z"/>
<path fill="#DEF2FD" opacity="1.000000" stroke="none" 
	d="
M71.747543,110.372360 
	C71.483017,111.309555 71.259613,111.860443 71.065201,112.715836 
	C70.680733,114.040421 70.267288,115.060501 69.788528,116.406441 
	C66.556076,115.898590 66.556076,115.898590 67.396194,112.624397 
	C65.219376,106.343491 63.568100,101.578964 61.790333,96.445427 
	C64.231285,95.246529 64.226021,95.248482 65.201714,97.876991 
	C66.123146,100.359329 67.057251,102.836975 67.985794,105.316681 
	C68.556343,105.263863 69.126892,105.211044 69.697433,105.158226 
	C70.482735,102.610901 71.064400,99.973839 72.132233,97.551041 
	C72.740509,96.170929 74.142593,95.140678 75.564545,94.061279 
	C75.653870,95.254189 75.365883,96.338707 75.065491,97.759949 
	C73.964943,102.059792 72.876808,106.022919 71.747543,110.372360 
z"/>
<path fill="#E8FAFF" opacity="1.000000" stroke="none" 
	d="
M50.013794,93.187073 
	C53.755711,93.628525 57.470882,94.373108 61.152218,95.538727 
	C59.315590,96.059570 57.512791,96.159370 55.748123,96.257050 
	C53.824413,104.348640 54.438347,106.073936 59.788589,107.826637 
	C56.617271,111.423714 54.659622,110.675407 51.969032,104.483627 
	C51.974453,103.024712 52.006786,101.930077 52.030308,100.042099 
	C51.328045,97.531532 50.634598,95.814308 49.941147,94.097084 
	C49.956444,93.894798 49.971741,93.692505 50.013794,93.187073 
z"/>
<path fill="#3661C9" opacity="1.000000" stroke="none" 
	d="
M39.324493,99.181099 
	C40.018578,99.101280 41.048622,99.200600 42.367043,99.566093 
	C41.657089,99.674919 40.658772,99.517578 39.324493,99.181099 
z"/>
<path fill="#3661C9" opacity="1.000000" stroke="none" 
	d="
M35.292740,98.082962 
	C35.919998,98.074356 36.834816,98.273766 38.031181,98.685532 
	C37.401917,98.695587 36.491108,98.493279 35.292740,98.082962 
z"/>
<path fill="#3661C9" opacity="1.000000" stroke="none" 
	d="
M43.771057,106.068573 
	C43.551868,106.290024 43.060986,106.557007 42.281746,106.801239 
	C42.495380,106.557022 42.997372,106.335564 43.771057,106.068573 
z"/>
<path fill="#3661C9" opacity="1.000000" stroke="none" 
	d="
M45.174568,101.100983 
	C45.330040,101.100334 45.622566,101.317917 45.939793,101.830818 
	C45.746864,101.857162 45.529240,101.588188 45.174568,101.100983 
z"/>
<path fill="#3661C9" opacity="1.000000" stroke="none" 
	d="
M44.884464,105.173889 
	C44.909210,105.332123 44.735943,105.638474 44.284950,105.992828 
	C44.200619,105.770027 44.427029,105.530411 44.884464,105.173889 
z"/>
<path fill="#3661C9" opacity="1.000000" stroke="none" 
	d="
M45.775085,104.064034 
	C45.835102,104.237480 45.724800,104.601448 45.324505,105.029015 
	C45.224598,104.813263 45.414684,104.533905 45.775085,104.064034 
z"/>
<path fill="#3661C9" opacity="1.000000" stroke="none" 
	d="
M44.075119,100.221893 
	C44.240391,100.168770 44.597034,100.287262 45.033165,100.684143 
	C44.830597,100.772865 44.548546,100.583191 44.075119,100.221893 
z"/>
<path fill="#D9EEFE" opacity="1.000000" stroke="none" 
	d="
M115.000305,108.573105 
	C110.878204,108.541763 106.908096,108.276779 102.594109,107.876213 
	C101.527473,105.849419 100.804726,103.958191 100.462463,101.744667 
	C102.209908,102.660797 103.576851,103.899231 104.962143,105.111542 
	C104.980484,105.085411 104.922470,105.058922 105.080582,105.390854 
	C107.526550,105.842209 109.814407,105.961624 112.068634,106.071320 
	C112.035004,106.061607 112.060753,106.126701 112.404663,106.078156 
	C115.566208,103.543045 115.826546,101.436127 111.750008,99.867661 
	C111.652718,99.776726 111.387177,99.797157 111.078529,99.561516 
	C108.230598,98.805107 105.691315,98.284348 103.152023,97.763588 
	C102.430153,95.143730 100.649200,92.263924 101.214691,89.960037 
	C102.275948,85.636299 106.491798,85.860580 110.588249,85.946190 
	C115.364594,86.921379 116.727531,90.597107 118.661514,94.429657 
	C119.032509,95.086029 119.026794,95.403290 118.695969,95.547592 
	C116.251434,93.580345 114.121552,91.785873 111.993240,89.999649 
	C111.994812,90.007904 112.012230,90.007149 111.767136,89.693481 
	C110.381874,89.211166 109.068245,88.605164 108.140869,88.972992 
	C106.625015,89.574219 105.360733,90.809731 103.990326,91.777664 
	C105.198898,93.083969 106.284248,94.547920 107.668358,95.629601 
	C108.353546,96.165077 109.594055,95.968620 110.574394,96.151237 
	C116.826202,97.315826 117.965927,98.684128 118.054626,105.090858 
	C118.054626,105.090858 117.880424,105.374718 117.637978,105.687042 
	C117.242264,106.334717 117.088997,106.670067 116.935730,107.005417 
	C116.341255,107.450096 115.746780,107.894775 115.000305,108.573105 
z"/>
<path fill="#E1F9FF" opacity="1.000000" stroke="none" 
	d="
M158.482758,108.946487 
	C158.041489,108.544273 157.870209,108.270439 157.361359,107.974075 
	C156.785034,103.910156 156.438660,99.936104 156.128693,95.511589 
	C158.896423,94.722549 161.656387,93.960815 164.352448,94.143318 
	C168.527359,94.425911 170.452408,97.595276 169.727783,101.717049 
	C169.466736,103.201927 169.685867,104.771225 169.685867,106.601540 
	C168.163574,107.574966 166.409424,108.696648 164.327545,109.962715 
	C162.286682,109.740585 160.573532,109.374069 158.482758,108.946487 
M162.610672,96.070427 
	C161.254089,97.218521 159.897507,98.366608 158.540924,99.514694 
	C158.825195,99.833565 159.109482,100.152435 159.393753,100.471306 
	C161.870316,100.471306 164.346863,100.471306 166.823425,100.471306 
	C167.029419,100.065201 167.235397,99.659096 167.441376,99.252991 
	C166.091949,98.180069 164.742523,97.107147 162.610672,96.070427 
z"/>
<path fill="#DEF5FF" opacity="1.000000" stroke="none" 
	d="
M119.010620,95.720367 
	C119.026794,95.403290 119.032509,95.086029 119.020050,94.530670 
	C120.000565,92.667961 120.988785,91.043167 122.689705,88.246597 
	C123.122063,90.281311 123.434402,91.751183 123.680145,92.907692 
	C125.298615,93.912476 127.172768,95.075996 129.045410,96.648514 
	C127.564445,97.057518 126.085007,97.057518 124.641983,97.057518 
	C122.999924,105.304138 123.357071,106.201546 128.764053,107.685425 
	C126.088837,110.690773 125.431892,110.678986 121.147385,106.816086 
	C120.311096,102.626831 119.660858,99.173599 119.010620,95.720367 
z"/>
<path fill="#C1D8F2" opacity="1.000000" stroke="none" 
	d="
M153.665375,96.221817 
	C153.439224,96.256851 152.930328,96.367043 152.318283,96.348068 
	C152.604294,96.244926 152.993469,96.270943 153.665375,96.221817 
z"/>
<path fill="#2D62D6" opacity="1.000000" stroke="none" 
	d="
M49.586159,94.060120 
	C50.634598,95.814308 51.328045,97.531532 52.013901,99.631744 
	C47.153397,98.332054 42.266285,96.737442 37.481346,94.879677 
	C36.687092,94.571304 35.770908,93.006081 35.922203,92.215065 
	C36.129833,91.129463 37.099346,89.803886 38.098820,89.324890 
	C41.664280,87.616150 44.367096,89.402496 46.374420,94.426125 
	C47.340752,94.289818 48.285961,94.156487 49.586159,94.060120 
z"/>
<path fill="#2E61DA" opacity="1.000000" stroke="none" 
	d="
M139.227234,106.305450 
	C135.998337,107.636642 133.278503,107.123741 132.657715,103.961151 
	C132.246307,101.865372 133.079681,99.257011 134.117752,97.277733 
	C134.529663,96.492340 137.812195,96.083801 138.373810,96.730888 
	C139.713287,98.274223 140.504395,100.488182 140.925186,102.551956 
	C141.135040,103.581184 140.045380,104.875381 139.227234,106.305450 
z"/>
<path fill="#4571D4" opacity="1.000000" stroke="none" 
	d="
M86.279907,101.982368 
	C87.438293,100.003281 88.221191,96.849228 89.846107,96.329941 
	C92.090836,95.612564 94.105309,97.584908 92.951340,100.963684 
	C92.895370,102.363052 93.373436,103.427994 93.851501,104.492943 
	C93.734268,104.621605 93.617035,104.750275 93.131775,104.968834 
	C92.516647,105.400597 92.269524,105.742477 92.022400,106.084358 
	C92.022408,106.084358 92.206642,106.079720 91.863960,106.059464 
	C89.774155,104.686928 88.027031,103.334648 86.279907,101.982368 
z"/>
<path fill="#3A66C6" opacity="1.000000" stroke="none" 
	d="
M86.123917,102.349167 
	C88.027031,103.334648 89.774155,104.686928 91.866684,106.151573 
	C88.444458,108.048943 86.237686,107.086960 86.123917,102.349167 
z"/>
<path fill="#3A66C6" opacity="1.000000" stroke="none" 
	d="
M94.121048,104.317642 
	C93.373436,103.427994 92.895370,102.363052 92.663864,101.149948 
	C94.007576,101.360474 95.104713,101.719154 96.579193,102.052994 
	C96.957146,102.480659 96.957756,102.933167 96.947784,103.724792 
	C96.088333,104.090057 95.239464,104.116196 94.121048,104.317642 
z"/>
<path fill="#3666D0" opacity="1.000000" stroke="none" 
	d="
M96.004478,96.349190 
	C96.241676,96.410797 96.552841,96.766869 96.864990,97.333542 
	C96.603470,97.243980 96.340950,96.943817 96.004478,96.349190 
z"/>
<path fill="#3A66C6" opacity="1.000000" stroke="none" 
	d="
M92.389351,105.987686 
	C92.269524,105.742477 92.516647,105.400597 92.937477,104.794411 
	C92.992897,104.983742 92.874603,105.437378 92.389351,105.987686 
z"/>
<path fill="#3866CA" opacity="1.000000" stroke="none" 
	d="
M118.695969,95.547592 
	C119.660858,99.173599 120.311096,102.626831 120.946686,106.530914 
	C120.158401,106.406677 119.384766,105.831589 118.332870,105.173676 
	C117.965927,98.684128 116.826202,97.315826 110.574394,96.151237 
	C109.594055,95.968620 108.353546,96.165077 107.668358,95.629601 
	C106.284248,94.547920 105.198898,93.083969 103.990326,91.777664 
	C105.360733,90.809731 106.625015,89.574219 108.140869,88.972992 
	C109.068245,88.605164 110.381874,89.211166 111.372803,89.721420 
	C109.642387,90.807663 108.061203,91.552292 106.480026,92.296921 
	C107.742989,93.078156 109.005943,93.859383 110.268906,94.640610 
	C110.843155,93.090866 111.417412,91.541130 111.991669,89.991394 
	C114.121552,91.785873 116.251434,93.580345 118.695969,95.547592 
z"/>
<path fill="#3866CA" opacity="1.000000" stroke="none" 
	d="
M117.116135,106.982666 
	C117.088997,106.670067 117.242264,106.334717 117.633743,105.853516 
	C117.680161,106.125084 117.488350,106.542503 117.116135,106.982666 
z"/>
<path fill="#195AF6" opacity="1.000000" stroke="none" 
	d="
M130.510498,110.509514 
	C130.488724,110.517464 130.532257,110.501564 130.510498,110.509514 
z"/>
<path fill="#3866CA" opacity="1.000000" stroke="none" 
	d="
M103.006943,98.079002 
	C105.691315,98.284348 108.230598,98.805107 110.654449,99.609589 
	C108.774269,100.011955 107.009514,100.130615 104.943794,100.269516 
	C104.943794,102.208748 104.943794,103.673203 104.943794,105.137665 
	C103.576851,103.899231 102.209908,102.660797 100.513718,101.397530 
	C100.162323,101.182983 100.140167,100.993271 100.091133,100.520828 
	C100.996780,99.623543 101.929314,99.008980 103.006943,98.079002 
z"/>
<path fill="#1D5AEE" opacity="1.000000" stroke="none" 
	d="
M104.962143,105.111542 
	C104.943794,103.673203 104.943794,102.208748 104.943794,100.269516 
	C107.009514,100.130615 108.774269,100.011955 110.963104,99.845230 
	C111.387177,99.797157 111.652718,99.776726 111.786339,100.308807 
	C111.966888,102.602829 112.013817,104.364761 112.060753,106.126701 
	C112.060753,106.126701 112.035004,106.061607 111.670082,106.004089 
	C109.177597,105.650681 107.050034,105.354805 104.922470,105.058922 
	C104.922470,105.058922 104.980484,105.085411 104.962143,105.111542 
z"/>
<path fill="#3866CA" opacity="1.000000" stroke="none" 
	d="
M112.404663,106.078156 
	C112.013817,104.364761 111.966888,102.602829 111.883629,100.399734 
	C115.826546,101.436127 115.566208,103.543045 112.404663,106.078156 
z"/>
<path fill="#3866CA" opacity="1.000000" stroke="none" 
	d="
M105.080582,105.390854 
	C107.050034,105.354805 109.177597,105.650681 111.703705,106.013802 
	C109.814407,105.961624 107.526550,105.842209 105.080582,105.390854 
z"/>
<path fill="#3E68CE" opacity="1.000000" stroke="none" 
	d="
M163.001892,96.052322 
	C164.742523,97.107147 166.091949,98.180069 167.441376,99.252991 
	C167.235397,99.659096 167.029419,100.065201 166.823425,100.471306 
	C164.346863,100.471306 161.870316,100.471306 159.393753,100.471306 
	C159.109482,100.152435 158.825195,99.833565 158.540924,99.514694 
	C159.897507,98.366608 161.254089,97.218521 163.001892,96.052322 
z"/>
<path fill="#1D5AEE" opacity="1.000000" stroke="none" 
	d="
M111.993240,89.999649 
	C111.417412,91.541130 110.843155,93.090866 110.268906,94.640610 
	C109.005943,93.859383 107.742989,93.078156 106.480026,92.296921 
	C108.061203,91.552292 109.642387,90.807663 111.617905,90.035088 
	C112.012230,90.007149 111.994812,90.007904 111.993240,89.999649 
z"/>
</svg>